# This file uses centimeters as units for non-parametric coordinates.

mtllib Puerta.mtl
g default
v 0.230213 1.824049 -0.444877
v 0.451455 1.824049 -0.444877
v 0.230213 2.045291 -0.444877
v 0.451455 2.045291 -0.444877
v 0.230213 2.045291 -0.462085
v 0.451455 2.045291 -0.462085
v 0.230213 1.824049 -0.462085
v 0.451455 1.824049 -0.462085
v 0.232765 2.075303 -0.444877
v 0.232765 2.075303 -0.462085
v 0.247118 2.101352 -0.444877
v 0.247118 2.101352 -0.462085
v 0.276647 2.120404 -0.444877
v 0.276647 2.120404 -0.462085
v 0.317977 2.130436 -0.444877
v 0.317977 2.130436 -0.462085
v 0.363691 2.130436 -0.444877
v 0.363691 2.130436 -0.462085
v 0.405022 2.120404 -0.444877
v 0.405022 2.120404 -0.462085
v 0.434550 2.101352 -0.444877
v 0.434550 2.101352 -0.462085
v 0.448904 2.075303 -0.444877
v 0.448904 2.075303 -0.462085
vt 0.375000 0.000000
vt 0.625000 0.000000
vt 0.375000 0.250000
vt 0.625000 0.250000
vt 0.375000 0.500000
vt 0.625000 0.500000
vt 0.375000 0.750000
vt 0.625000 0.750000
vt 0.375000 1.000000
vt 0.625000 1.000000
vt 0.875000 0.000000
vt 0.875000 0.250000
vt 0.125000 0.000000
vt 0.125000 0.250000
vt 0.402778 0.250000
vt 0.208333 0.250000
vt 0.430556 0.250000
vt 0.291667 0.250000
vt 0.458333 0.250000
vt 0.375000 0.250000
vt 0.486111 0.250000
vt 0.458333 0.250000
vt 0.513889 0.250000
vt 0.541667 0.250000
vt 0.541667 0.250000
vt 0.625000 0.250000
vt 0.569444 0.250000
vt 0.708333 0.250000
vt 0.597222 0.250000
vt 0.791667 0.250000
vn 0.000000 0.000000 1.000000
vn 0.000000 0.000000 1.000000
vn 0.000000 0.000000 1.000000
vn 0.000000 0.000000 1.000000
vn 0.000000 0.000000 -1.000000
vn 0.000000 0.000000 -1.000000
vn 0.000000 0.000000 -1.000000
vn 0.000000 0.000000 -1.000000
vn 0.000000 -1.000000 0.000000
vn 0.000000 -1.000000 0.000000
vn 0.000000 -1.000000 0.000000
vn 0.000000 -1.000000 0.000000
vn 1.000000 0.000000 0.000000
vn 1.000000 0.000000 0.000000
vn 1.000000 0.000000 0.000000
vn 1.000000 0.000000 0.000000
vn -1.000000 0.000000 0.000000
vn -1.000000 0.000000 0.000000
vn -1.000000 0.000000 0.000000
vn -1.000000 0.000000 0.000000
vn -0.996405 0.084713 0.000000
vn -0.996405 0.084713 0.000000
vn -0.957416 0.288713 0.000000
vn -0.957416 0.288713 0.000000
vn -0.716731 0.697349 0.000000
vn -0.716731 0.697349 0.000000
vn -0.379713 0.925104 0.000000
vn -0.379713 0.925104 0.000000
vn -0.114493 0.993424 0.000000
vn -0.114493 0.993424 0.000000
vn 0.114493 0.993424 0.000000
vn 0.114493 0.993424 0.000000
vn 0.379713 0.925104 0.000000
vn 0.379713 0.925104 0.000000
vn 0.716731 0.697349 0.000000
vn 0.716731 0.697349 0.000000
vn 0.957416 0.288713 0.000000
vn 0.957416 0.288713 0.000000
vn 0.996405 0.084713 0.000000
vn 0.996405 0.084713 0.000000
vn 0.000000 0.000000 -1.000000
vn 0.000000 0.000000 -1.000000
vn 0.000000 0.000000 -1.000000
vn 0.000000 0.000000 -1.000000
vn 0.000000 0.000000 -1.000000
vn 0.000000 0.000000 -1.000000
vn 0.000000 0.000000 -1.000000
vn 0.000000 0.000000 -1.000000
vn 0.000000 0.000000 -1.000000
vn 0.000000 0.000000 -1.000000
vn 0.000000 0.000000 1.000000
vn 0.000000 0.000000 1.000000
vn 0.000000 0.000000 1.000000
vn 0.000000 0.000000 1.000000
vn 0.000000 0.000000 1.000000
vn 0.000000 0.000000 1.000000
vn 0.000000 0.000000 1.000000
vn 0.000000 0.000000 1.000000
vn 0.000000 0.000000 1.000000
vn 0.000000 0.000000 1.000000
s off
g pasted__pCube5 group11
usemtl initialShadingGroup
f 1/1/1 2/2/2 4/4/3 3/3/4
f 5/5/5 6/6/6 8/8/7 7/7/8
f 7/7/9 8/8/10 2/10/11 1/9/12
f 2/2/13 8/11/14 6/12/15 4/4/16
f 7/13/17 1/1/18 3/3/19 5/14/20
s 1
f 5/14/21 3/3/22 9/15/23 10/16/24
f 10/16/24 9/15/23 11/17/25 12/18/26
f 12/18/26 11/17/25 13/19/27 14/20/28
f 14/20/28 13/19/27 15/21/29 16/22/30
f 16/22/30 15/21/29 17/23/31 18/24/32
f 18/24/32 17/23/31 19/25/33 20/26/34
f 20/26/34 19/25/33 21/27/35 22/28/36
f 22/28/36 21/27/35 23/29/37 24/30/38
f 24/30/38 23/29/37 4/4/39 6/12/40
s off
f 6/6/41 5/14/42 10/16/43 12/18/44 14/20/45 16/22/46 18/24/47 20/26/48 22/28/49 24/30/50
f 4/4/51 23/29/52 21/27/53 19/25/54 17/23/55 15/21/56 13/19/57 11/17/58 9/15/59 3/3/60
