# This file uses centimeters as units for non-parametric coordinates.

mtllib Vidrio2.mtl
g default
v -0.026208 0.152773 -0.010555
v -0.030614 0.161390 -0.010757
v -0.037495 0.168238 -0.010941
v -0.046178 0.172647 -0.011089
v -0.055814 0.174184 -0.011188
v -0.065459 0.172701 -0.011227
v -0.074170 0.168342 -0.011202
v -0.081092 0.161534 -0.011116
v -0.085550 0.152943 -0.010977
v -0.087105 0.143409 -0.010800
v -0.085608 0.133868 -0.010600
v -0.081202 0.125251 -0.010399
v -0.074321 0.118403 -0.010215
v -0.065638 0.113994 -0.010067
v -0.056002 0.112456 -0.009968
v -0.046357 0.113939 -0.009929
v -0.037647 0.118298 -0.009954
v -0.030724 0.125106 -0.010040
v -0.026266 0.133698 -0.010178
v -0.024711 0.143231 -0.010356
v -0.026144 0.152622 0.009733
v -0.030549 0.161238 0.009531
v -0.037430 0.168086 0.009347
v -0.046113 0.172495 0.009198
v -0.055749 0.174033 0.009100
v -0.065395 0.172550 0.009061
v -0.074105 0.168191 0.009085
v -0.081027 0.161382 0.009171
v -0.085485 0.152791 0.009310
v -0.087041 0.143258 0.009488
v -0.085543 0.133716 0.009688
v -0.081138 0.125099 0.009889
v -0.074257 0.118252 0.010073
v -0.065573 0.113843 0.010222
v -0.055937 0.112304 0.010320
v -0.046292 0.113787 0.010359
v -0.037582 0.118147 0.010334
v -0.030659 0.124955 0.010248
v -0.026202 0.133547 0.010110
v -0.024646 0.143079 0.009932
v -0.055908 0.143320 -0.010578
v -0.055843 0.143169 0.009710
vt 0.373636 0.313417
vt 0.386135 0.313326
vt 0.388878 0.689255
vt 0.376378 0.689347
vt 0.398635 0.313234
vt 0.401377 0.689164
vt 0.411135 0.313143
vt 0.413877 0.689073
vt 0.423634 0.313052
vt 0.426377 0.688982
vt 0.436134 0.312961
vt 0.438876 0.688891
vt 0.448634 0.312870
vt 0.451376 0.688800
vt 0.461133 0.312779
vt 0.463875 0.688708
vt 0.473633 0.312687
vt 0.476375 0.688617
vt 0.486133 0.312596
vt 0.488875 0.688526
vt 0.498632 0.312505
vt 0.501374 0.688435
vt 0.511132 0.312414
vt 0.513874 0.688344
vt 0.523632 0.312323
vt 0.526374 0.688252
vt 0.536131 0.312231
vt 0.538873 0.688161
vt 0.548631 0.312140
vt 0.551373 0.688070
vt 0.561130 0.312049
vt 0.563873 0.687979
vt 0.573630 0.311958
vt 0.576372 0.687888
vt 0.586130 0.311867
vt 0.588872 0.687797
vt 0.598629 0.311776
vt 0.601372 0.687705
vt 0.611129 0.311684
vt 0.613871 0.687614
vt 0.623629 0.311593
vt 0.626371 0.687523
vt 0.623228 0.063498
vt 0.645739 0.106893
vt 0.497447 0.150009
vt 0.588410 0.029184
vt 0.544691 0.007308
vt 0.496353 0.000013
vt 0.448126 0.008013
vt 0.404731 0.030523
vt 0.370417 0.065342
vt 0.348542 0.109060
vt 0.341247 0.157399
vt 0.349246 0.205626
vt 0.371757 0.249020
vt 0.406576 0.283335
vt 0.450294 0.305210
vt 0.498632 0.312505
vt 0.546859 0.304506
vt 0.590254 0.281995
vt 0.624568 0.247176
vt 0.646443 0.203458
vt 0.653738 0.155119
vt 0.651458 0.890940
vt 0.629583 0.934658
vt 0.502462 0.837491
vt 0.595269 0.969477
vt 0.551874 0.991987
vt 0.503647 0.999987
vt 0.455309 0.992692
vt 0.411591 0.970816
vt 0.376772 0.936502
vt 0.354261 0.893107
vt 0.346262 0.844881
vt 0.353557 0.796542
vt 0.375432 0.752824
vt 0.409746 0.718005
vt 0.453141 0.695494
vt 0.501368 0.687495
vt 0.549706 0.694790
vt 0.593424 0.716665
vt 0.628243 0.750980
vt 0.650754 0.794374
vt 0.658753 0.842601
vn 0.950109 0.311919 -0.000700
vn 0.806076 0.591809 0.001850
vn 0.809383 0.587279 0.001805
vn 0.951916 0.306360 -0.000748
vn 0.806076 0.591809 0.001850
vn 0.583997 0.811745 0.004202
vn 0.587904 0.808920 0.004168
vn 0.809383 0.587279 0.001805
vn 0.583997 0.811745 0.004202
vn 0.306971 0.951699 0.006131
vn 0.310383 0.950592 0.006112
vn 0.587904 0.808920 0.004168
vn 0.306971 0.951699 0.006131
vn 0.001782 0.999971 0.007463
vn 0.003817 0.999965 0.007457
vn 0.310383 0.950592 0.006112
vn 0.001782 0.999971 0.007463
vn -0.303426 0.952821 0.008085
vn -0.303144 0.952910 0.008084
vn 0.003817 0.999965 0.007457
vn -0.303426 0.952821 0.008085
vn -0.580613 0.814141 0.007934
vn -0.581825 0.813275 0.007932
vn -0.303144 0.952910 0.008084
vn -0.580613 0.814141 0.007934
vn -0.803221 0.595639 0.007013
vn -0.805102 0.593095 0.007000
vn -0.581825 0.813275 0.007932
vn -0.803221 0.595639 0.007013
vn -0.948362 0.317144 0.005395
vn -0.949795 0.312827 0.005367
vn -0.805102 0.593095 0.007000
vn -0.948362 0.317144 0.005395
vn -0.999978 0.005850 0.003234
vn -0.999995 0.000368 0.003193
vn -0.949795 0.312827 0.005367
vn -0.999978 0.005850 0.003234
vn -0.951916 -0.306360 0.000748
vn -0.950108 -0.311920 0.000701
vn -0.999995 0.000368 0.003193
vn -0.951916 -0.306360 0.000748
vn -0.809384 -0.587277 -0.001806
vn -0.806077 -0.591807 -0.001850
vn -0.950108 -0.311920 0.000701
vn -0.809384 -0.587277 -0.001806
vn -0.587904 -0.808920 -0.004168
vn -0.583999 -0.811744 -0.004202
vn -0.806077 -0.591807 -0.001850
vn -0.587904 -0.808920 -0.004168
vn -0.310384 -0.950592 -0.006111
vn -0.306971 -0.951699 -0.006130
vn -0.583999 -0.811744 -0.004202
vn -0.310384 -0.950592 -0.006111
vn -0.003818 -0.999965 -0.007459
vn -0.001782 -0.999971 -0.007465
vn -0.306971 -0.951699 -0.006130
vn -0.003818 -0.999965 -0.007459
vn 0.303144 -0.952911 -0.008087
vn 0.303427 -0.952820 -0.008087
vn -0.001782 -0.999971 -0.007465
vn 0.303144 -0.952911 -0.008087
vn 0.581828 -0.813273 -0.007931
vn 0.580616 -0.814139 -0.007934
vn 0.303427 -0.952820 -0.008087
vn 0.581828 -0.813273 -0.007931
vn 0.805102 -0.593095 -0.006999
vn 0.803222 -0.595639 -0.007012
vn 0.580616 -0.814139 -0.007934
vn 0.805102 -0.593095 -0.006999
vn 0.949795 -0.312827 -0.005367
vn 0.948361 -0.317146 -0.005395
vn 0.803222 -0.595639 -0.007012
vn 0.949795 -0.312827 -0.005367
vn 0.999995 -0.000368 -0.003193
vn 0.999978 -0.005852 -0.003234
vn 0.948361 -0.317146 -0.005395
vn 0.999995 -0.000368 -0.003193
vn 0.950109 0.311919 -0.000700
vn 0.951916 0.306360 -0.000748
vn 0.999978 -0.005852 -0.003234
vn 0.007059 -0.019786 -0.999779
vn 0.007059 -0.019789 -0.999779
vn 0.007060 -0.019787 -0.999779
vn 0.007062 -0.019790 -0.999779
vn 0.007059 -0.019786 -0.999779
vn 0.007060 -0.019787 -0.999779
vn 0.007056 -0.019786 -0.999779
vn 0.007062 -0.019790 -0.999779
vn 0.007060 -0.019787 -0.999779
vn 0.007056 -0.019785 -0.999779
vn 0.007056 -0.019786 -0.999779
vn 0.007060 -0.019787 -0.999779
vn 0.007062 -0.019787 -0.999779
vn 0.007056 -0.019785 -0.999779
vn 0.007060 -0.019787 -0.999779
vn 0.007065 -0.019787 -0.999779
vn 0.007062 -0.019787 -0.999779
vn 0.007060 -0.019787 -0.999779
vn 0.007060 -0.019792 -0.999779
vn 0.007065 -0.019787 -0.999779
vn 0.007060 -0.019787 -0.999779
vn 0.007055 -0.019788 -0.999779
vn 0.007060 -0.019792 -0.999779
vn 0.007060 -0.019787 -0.999779
vn 0.007060 -0.019790 -0.999779
vn 0.007055 -0.019788 -0.999779
vn 0.007060 -0.019787 -0.999779
vn 0.007056 -0.019792 -0.999779
vn 0.007060 -0.019790 -0.999779
vn 0.007060 -0.019787 -0.999779
vn 0.007056 -0.019787 -0.999779
vn 0.007056 -0.019792 -0.999779
vn 0.007060 -0.019787 -0.999779
vn 0.007050 -0.019780 -0.999780
vn 0.007056 -0.019787 -0.999779
vn 0.007060 -0.019787 -0.999779
vn 0.007050 -0.019776 -0.999780
vn 0.007050 -0.019780 -0.999780
vn 0.007060 -0.019787 -0.999779
vn 0.007068 -0.019782 -0.999779
vn 0.007050 -0.019776 -0.999780
vn 0.007060 -0.019787 -0.999779
vn 0.007083 -0.019775 -0.999779
vn 0.007068 -0.019782 -0.999779
vn 0.007060 -0.019787 -0.999779
vn 0.007071 -0.019781 -0.999779
vn 0.007083 -0.019775 -0.999779
vn 0.007060 -0.019787 -0.999779
vn 0.007060 -0.019788 -0.999779
vn 0.007071 -0.019781 -0.999779
vn 0.007060 -0.019787 -0.999779
vn 0.007065 -0.019791 -0.999779
vn 0.007060 -0.019788 -0.999779
vn 0.007060 -0.019787 -0.999779
vn 0.007060 -0.019799 -0.999779
vn 0.007065 -0.019791 -0.999779
vn 0.007060 -0.019787 -0.999779
vn 0.007059 -0.019789 -0.999779
vn 0.007060 -0.019799 -0.999779
vn 0.007060 -0.019787 -0.999779
vn -0.007053 0.019781 0.999780
vn -0.007059 0.019779 0.999780
vn -0.007060 0.019785 0.999779
vn -0.007059 0.019779 0.999780
vn -0.007056 0.019781 0.999780
vn -0.007060 0.019785 0.999779
vn -0.007056 0.019781 0.999780
vn -0.007056 0.019775 0.999780
vn -0.007060 0.019785 0.999779
vn -0.007056 0.019775 0.999780
vn -0.007062 0.019781 0.999779
vn -0.007060 0.019785 0.999779
vn -0.007062 0.019781 0.999779
vn -0.007068 0.019776 0.999780
vn -0.007060 0.019785 0.999779
vn -0.007068 0.019776 0.999780
vn -0.007071 0.019781 0.999779
vn -0.007060 0.019785 0.999779
vn -0.007071 0.019781 0.999779
vn -0.007059 0.019785 0.999779
vn -0.007060 0.019785 0.999779
vn -0.007059 0.019785 0.999779
vn -0.007060 0.019786 0.999779
vn -0.007060 0.019785 0.999779
vn -0.007060 0.019786 0.999779
vn -0.007058 0.019790 0.999779
vn -0.007060 0.019785 0.999779
vn -0.007058 0.019790 0.999779
vn -0.007061 0.019795 0.999779
vn -0.007060 0.019785 0.999779
vn -0.007061 0.019795 0.999779
vn -0.007051 0.019783 0.999779
vn -0.007060 0.019785 0.999779
vn -0.007051 0.019783 0.999779
vn -0.007056 0.019779 0.999779
vn -0.007060 0.019785 0.999779
vn -0.007056 0.019779 0.999779
vn -0.007068 0.019791 0.999779
vn -0.007060 0.019785 0.999779
vn -0.007068 0.019791 0.999779
vn -0.007062 0.019789 0.999779
vn -0.007060 0.019785 0.999779
vn -0.007062 0.019789 0.999779
vn -0.007056 0.019790 0.999779
vn -0.007060 0.019785 0.999779
vn -0.007056 0.019790 0.999779
vn -0.007065 0.019784 0.999779
vn -0.007060 0.019785 0.999779
vn -0.007065 0.019784 0.999779
vn -0.007071 0.019785 0.999779
vn -0.007060 0.019785 0.999779
vn -0.007071 0.019785 0.999779
vn -0.007060 0.019795 0.999779
vn -0.007060 0.019785 0.999779
vn -0.007060 0.019795 0.999779
vn -0.007060 0.019797 0.999779
vn -0.007060 0.019785 0.999779
vn -0.007060 0.019797 0.999779
vn -0.007053 0.019781 0.999780
vn -0.007060 0.019785 0.999779
s off
g polySurface711polySurface486
usemtl phong17SG
f 1/1/1 2/2/2 22/3/3 21/4/4
f 2/2/5 3/5/6 23/6/7 22/3/8
f 3/5/9 4/7/10 24/8/11 23/6/12
f 4/7/13 5/9/14 25/10/15 24/8/16
f 5/9/17 6/11/18 26/12/19 25/10/20
f 6/11/21 7/13/22 27/14/23 26/12/24
f 7/13/25 8/15/26 28/16/27 27/14/28
f 8/15/29 9/17/30 29/18/31 28/16/32
f 9/17/33 10/19/34 30/20/35 29/18/36
f 10/19/37 11/21/38 31/22/39 30/20/40
f 11/21/41 12/23/42 32/24/43 31/22/44
f 12/23/45 13/25/46 33/26/47 32/24/48
f 13/25/49 14/27/50 34/28/51 33/26/52
f 14/27/53 15/29/54 35/30/55 34/28/56
f 15/29/57 16/31/58 36/32/59 35/30/60
f 16/31/61 17/33/62 37/34/63 36/32/64
f 17/33/65 18/35/66 38/36/67 37/34/68
f 18/35/69 19/37/70 39/38/71 38/36/72
f 19/37/73 20/39/74 40/40/75 39/38/76
f 20/39/77 1/41/78 21/42/79 40/40/80
f 2/43/81 1/44/82 41/45/83
f 3/46/84 2/43/85 41/45/86
f 4/47/87 3/46/88 41/45/89
f 5/48/90 4/47/91 41/45/92
f 6/49/93 5/48/94 41/45/95
f 7/50/96 6/49/97 41/45/98
f 8/51/99 7/50/100 41/45/101
f 9/52/102 8/51/103 41/45/104
f 10/53/105 9/52/106 41/45/107
f 11/54/108 10/53/109 41/45/110
f 12/55/111 11/54/112 41/45/113
f 13/56/114 12/55/115 41/45/116
f 14/57/117 13/56/118 41/45/119
f 15/58/120 14/57/121 41/45/122
f 16/59/123 15/58/124 41/45/125
f 17/60/126 16/59/127 41/45/128
f 18/61/129 17/60/130 41/45/131
f 19/62/132 18/61/133 41/45/134
f 20/63/135 19/62/136 41/45/137
f 1/44/138 20/63/139 41/45/140
f 21/64/141 22/65/142 42/66/143
f 22/65/144 23/67/145 42/66/146
f 23/67/147 24/68/148 42/66/149
f 24/68/150 25/69/151 42/66/152
f 25/69/153 26/70/154 42/66/155
f 26/70/156 27/71/157 42/66/158
f 27/71/159 28/72/160 42/66/161
f 28/72/162 29/73/163 42/66/164
f 29/73/165 30/74/166 42/66/167
f 30/74/168 31/75/169 42/66/170
f 31/75/171 32/76/172 42/66/173
f 32/76/174 33/77/175 42/66/176
f 33/77/177 34/78/178 42/66/179
f 34/78/180 35/79/181 42/66/182
f 35/79/183 36/80/184 42/66/185
f 36/80/186 37/81/187 42/66/188
f 37/81/189 38/82/190 42/66/191
f 38/82/192 39/83/193 42/66/194
f 39/83/195 40/84/196 42/66/197
f 40/84/198 21/64/199 42/66/200
