# This file uses centimeters as units for non-parametric coordinates.

mtllib Porton.mtl
g default
v -0.004355 0.043570 2.260105
v -0.406125 0.043570 2.260105
v -0.406125 0.043570 2.216355
v -0.004355 0.043570 2.216355
v -0.406125 0.749047 2.260105
v -0.406125 0.749047 2.216355
v -0.004355 0.749047 2.216355
v -0.396676 0.795880 2.260105
v -0.396676 0.795880 2.216355
v -0.004355 0.749047 2.260105
v -0.343522 0.836530 2.260105
v -0.343522 0.836530 2.216355
v -0.234175 0.866262 2.260105
v -0.234175 0.866262 2.216355
v -0.081122 0.881917 2.260105
v -0.081122 0.881917 2.216355
v -0.004355 0.881917 2.216355
v -0.004355 0.881917 2.260105
vt 0.497597 1.000000
vt 0.375000 1.000000
vt 0.375000 0.750000
vt 0.497597 0.750000
vt 0.125000 0.000000
vt 0.375000 0.000000
vt 0.217745 0.250000
vt 0.125000 0.250000
vt 0.375000 0.500000
vt 0.497597 0.500000
vt 0.278983 0.250000
vt 0.208333 0.250000
vt 0.000000 1.000000
vt 0.000000 0.000000
vt 1.000000 0.000000
vt 1.000000 1.000000
vt 0.340221 0.250000
vt 0.291667 0.250000
vt 0.401459 0.250000
vt 0.375000 0.250000
vt 0.462696 0.250000
vt 0.458333 0.250000
vt 0.496123 0.250000
vt 0.490467 0.250000
vt 0.200144 0.204403
vt 0.200144 0.218488
vt 0.295728 0.218488
vt 0.295728 0.204403
vt 0.295728 0.129619
vt 0.200144 0.129619
vt 0.370194 0.372597
vt -0.001306 0.001309
vt -0.000817 0.188159
vt 0.000162 0.562625
vt 0.000883 0.838434
vt 0.001309 1.001306
vt 1.001306 0.998691
vt 0.998691 -0.001306
vn 0.000000 -1.000000 0.000000
vn 0.000000 -1.000000 0.000000
vn 0.000000 -1.000000 0.000000
vn 0.000000 -1.000000 0.000000
vn -1.000000 0.000000 0.000000
vn -1.000000 0.000000 0.000000
vn -1.000000 0.000000 0.000000
vn -1.000000 0.000000 0.000000
vn 0.000000 0.000000 -1.000000
vn 0.000000 0.000000 -1.000000
vn 0.000000 0.000000 -1.000000
vn 0.000000 0.000000 -1.000000
vn -0.980249 0.197767 0.000000
vn -0.980249 0.197767 0.000000
vn -0.813230 0.581943 0.000000
vn -0.813230 0.581943 0.000000
vn 0.000000 0.000000 1.000000
vn 0.000000 0.000000 1.000000
vn 0.000000 0.000000 1.000000
vn 0.000000 0.000000 1.000000
vn -0.397438 0.917629 0.000000
vn -0.397438 0.917629 0.000000
vn -0.170435 0.985369 0.000000
vn -0.170435 0.985369 0.000000
vn -0.067961 0.997688 0.000000
vn -0.067961 0.997688 0.000000
vn 0.000000 1.000000 0.000000
vn 0.000000 1.000000 0.000000
vn 1.000000 0.000000 0.000000
vn 1.000000 0.000000 0.000000
vn 1.000000 0.000000 0.000000
vn 1.000000 0.000000 0.000000
vn 1.000000 0.000000 0.000000
vn 1.000000 0.000000 0.000000
vn 0.000000 0.000000 -1.000000
vn 0.000000 0.000000 -1.000000
vn 0.000000 0.000000 -1.000000
vn 0.000000 0.000000 -1.000000
vn 0.000000 0.000000 -1.000000
vn 0.000000 0.000000 1.000000
vn 0.000000 0.000000 1.000000
vn 0.000000 0.000000 1.000000
vn 0.000000 0.000000 1.000000
vn 0.000000 0.000000 1.000000
s off
g pasted__polySurface83 pasted__polySurface81 group31
usemtl pasted__lambert48SG1
f 1/1/1 2/2/2 3/3/3 4/4/4
f 3/5/5 2/6/6 5/7/7 6/8/8
s 1
f 4/4/9 3/3/10 6/9/11 7/10/12
s 2
f 6/8/13 5/7/14 8/11/15 9/12/16
s 3
f 10/13/17 5/14/18 2/15/19 1/16/20
s 2
f 9/12/16 8/11/15 11/17/21 12/18/22
f 12/18/22 11/17/21 13/19/23 14/20/24
f 14/20/24 13/19/23 15/21/25 16/22/26
f 17/23/27 16/22/26 15/21/25 18/24/28
s off
f 7/25/29 17/26/30 18/27/31 10/28/32 1/29/33 4/30/34
s 1
f 7/31/12 6/8/11 9/12/35 12/18/36 14/20/37 16/22/38 17/23/39
s 3
usemtl pasted__lambert49SG1
f 18/32/40 15/33/41 13/34/42 11/35/43 8/36/44 5/37/18 10/38/17
g default
v -0.004334 0.043570 2.215697
v 0.404640 0.043570 2.215697
v 0.404640 0.043570 2.259407
v -0.004334 0.043570 2.259407
v -0.004334 0.749047 2.215697
v 0.404640 0.749047 2.215697
v 0.404640 0.749047 2.259407
v -0.004334 0.749047 2.259407
v -0.004334 0.881917 2.259407
v 0.079637 0.881917 2.259407
v 0.079637 0.881917 2.215697
v -0.004334 0.881917 2.215697
v 0.232690 0.866262 2.259407
v 0.232690 0.866262 2.215697
v 0.342037 0.836530 2.259407
v 0.342037 0.836530 2.215697
v 0.395191 0.795880 2.215697
v 0.395191 0.795880 2.259407
vt 0.500205 0.750000
vt 0.625000 0.750000
vt 0.625000 1.000000
vt 0.500205 1.000000
vt 0.500205 0.500000
vt 0.625000 0.500000
vt 0.000000 1.000000
vt 0.000000 0.000000
vt 1.000000 0.000000
vt 1.000000 1.000000
vt 0.500205 0.000000
vt 0.788803 0.250000
vt 0.500473 0.250000
vt 0.875000 0.000000
vt 0.875000 0.250000
vt 0.500255 0.250000
vt 0.532089 0.250000
vt 0.541667 0.250000
vt 0.500331 0.250000
vt 0.596268 0.250000
vt 0.625000 0.250000
vt 0.625000 0.000000
vt 1.002241 0.002251
vt 0.002251 -0.002241
vt -0.002241 0.997749
vt 0.157823 0.998468
vt 0.428877 0.999686
vt 0.796889 1.001339
vt 0.997749 1.002241
vn 0.000000 -1.000000 0.000000
vn 0.000000 -1.000000 0.000000
vn 0.000000 -1.000000 0.000000
vn 0.000000 -1.000000 0.000000
vn 0.000000 0.000000 -1.000000
vn 0.000000 0.000000 -1.000000
vn 0.000000 0.000000 -1.000000
vn 0.000000 0.000000 -1.000000
vn 0.000000 0.000000 1.000000
vn 0.000000 0.000000 1.000000
vn 0.000000 0.000000 1.000000
vn 0.000000 0.000000 1.000000
vn 1.000000 0.000000 0.000000
vn 1.000000 0.000000 0.000000
vn 1.000000 0.000000 0.000000
vn 1.000000 0.000000 0.000000
vn 0.000000 1.000000 0.000000
vn 0.065904 0.997826 0.000000
vn 0.065904 0.997826 0.000000
vn 0.000000 1.000000 0.000000
vn 0.170436 0.985369 0.000000
vn 0.170436 0.985369 0.000000
vn 0.397438 0.917629 0.000000
vn 0.397438 0.917629 0.000000
vn 0.813229 0.581944 0.000000
vn 0.813229 0.581944 0.000000
vn 0.980249 0.197770 0.000000
vn 0.980249 0.197770 0.000000
vn -1.000000 0.000000 0.000000
vn -1.000000 0.000000 0.000000
vn -1.000000 0.000000 0.000000
vn -1.000000 0.000000 0.000000
vn -1.000000 0.000000 0.000000
vn -1.000000 0.000000 0.000000
vn 0.000000 0.000000 -1.000000
vn 0.000000 0.000000 -1.000000
vn 0.000000 0.000000 -1.000000
vn 0.000000 0.000000 -1.000000
vn 0.000000 0.000000 -1.000000
vn 0.000000 0.000000 1.000000
vn 0.000000 0.000000 1.000000
vn 0.000000 0.000000 1.000000
vn 0.000000 0.000000 1.000000
vn 0.000000 0.000000 1.000000
s off
g pasted__polySurface84 pasted__polySurface81 group30
usemtl pasted__lambert48SG
f 19/39/45 20/40/46 21/41/47 22/42/48
s 1
f 23/43/49 24/44/50 20/40/51 19/39/52
s 2
f 22/45/53 21/46/54 25/47/55 26/48/56
s off
f 21/41/57 20/40/58 24/44/59 25/49/60
s 3
f 27/50/61 28/51/62 29/52/63 30/53/64
f 29/52/63 28/51/62 31/54/65 32/55/66
f 32/55/66 31/54/65 33/56/67 34/57/68
f 35/58/69 36/59/70 25/49/71 24/44/72
f 34/57/68 33/56/67 36/59/70 35/58/69
s off
f 23/43/73 19/39/74 22/42/75 26/60/76 27/50/77 30/53/78
s 1
f 30/53/79 29/52/80 32/55/81 34/57/82 35/58/83 24/44/50 23/43/49
s 2
usemtl pasted__lambert49SG
f 26/61/56 25/62/55 36/63/84 33/64/85 31/65/86 28/66/87 27/67/88
